<svg id="圖層_1" data-name="圖層 1" xmlns="http://www.w3.org/2000/svg" viewBox="0 0 250 250"><defs><style>.cls-1{fill:#f7b52c;}.cls-2{fill:#ffa300;}.cls-3{fill:#fdfdfd;}</style></defs><circle class="cls-1" cx="125" cy="125" r="125"/><path class="cls-2" d="M245.07,152.58c-2.27-2.16-4.6-4.28-6.68-6.62-2.31-2.61-5-4.81-7.39-7.32q-3.9-4.09-7.91-8.07c-2.28-2.27-8-8.13-8.49-8.63-1.39-1.35-2.77-2.7-4.21-4-3.78-3.4-7.09-7.26-10.65-10.88-4.17-4.25-8.82-8-12.43-12.82-.31-.41-.61-.07-.92-.06,1.16,3.08,1.05,5.92-1.51,8.34-1.63,1.54-3.65,1.8-5.75,1.8H133.3q-30.92,0-61.84,0a16.31,16.31,0,0,1-5.25-.74,2.28,2.28,0,0,0,.87,1.6c2.57,1.83,4.43,4.38,6.62,6.59a7.79,7.79,0,0,0,2.21,1.65l3.44,0-3.44,0c-3.92.85-4.87,2-4.89,6.14q0,7.31,0,14.6c0,12.71.12,25.42-.06,38.12-.06,3.8.3,6.86,4.59,7.91-.58.07-1.75-.26-.6.94.27.29.42.69.68,1,2,2.31,4,4.08,7.68,4.05,23.88-.2,47.77-.1,71.65-.1h4.9c.33.16.83,0,1.23,0h1.37c6.89,0,13.79,0,20.69,0,1,0,2.05-.08,2.76.89l.37.19a2.2,2.2,0,0,0,1.07,1.1.18.18,0,0,0,.15.23,25.66,25.66,0,0,1,.26,7.87l-.17.43-2.33,2-.77.17q-21.37,0-42.74,0c-.44,0-51.68.26-76.86.26,2.07,2.73,4.58,4.75,6.84,7,1.34,1.33,2.49,3,4,4.18,2.5,2,4.45,4.57,6.85,6.7a49,49,0,0,1,3.63,3.8c1.81,2,3.91,3.84,5.8,5.83,1.51,1.59,3.19,3,4.73,4.56,2.44,2.44,4.82,5,7.24,7.41,1.52,1.56,3.13,3,4.59,4.64a58.53,58.53,0,0,1,4.18,4.3c.59.78.78,1.3-.41,1.53.3.48.81.37,1.24.41a128.39,128.39,0,0,0,36.85-2.07,121.25,121.25,0,0,0,46.43-20A124.74,124.74,0,0,0,241,171.75a103.27,103.27,0,0,0,5.31-16.67A3.05,3.05,0,0,0,245.07,152.58ZM179.28,116.9a2.54,2.54,0,0,0-.64-1.42A2.54,2.54,0,0,1,179.28,116.9ZM111,110.57h0a2.26,2.26,0,0,0-.22-.11A2.26,2.26,0,0,1,111,110.57ZM88.23,166.11v0Zm.16-6.15h0c0-.74-.12-1.48-.12-2.22C88.27,158.48,88.34,159.22,88.39,160Zm-4.5,20.3,0,0Zm2.79-.9a1.48,1.48,0,0,0,.51-.32A1.48,1.48,0,0,1,86.68,179.36Zm1.68-3.31h0Zm45.17-1.4c0,3.41-1.71,5.22-5.12,5.34-2.47.08-4.94.1-7.4,0a4.57,4.57,0,0,1-4.74-5q0-28.14,0-56.27c0-3.37,1.85-5.16,5.26-5.2,2.06,0,4.13,0,6.2,0,4.1,0,5.78,1.65,5.78,5.69q0,13.77,0,27.53h0Zm12.05-29.21h0l-.29,0Zm0,0h0a.78.78,0,0,0,.18.5A.78.78,0,0,1,145.58,145.45Zm.69.68Zm27,33.83a62.54,62.54,0,0,1-8.87-.22h0a10.71,10.71,0,0,1-2.46-2.29,20.7,20.7,0,0,1-.41-6.13c0-17.15.07-34.29-.05-51.44,0-4.36,2.16-6.65,6.3-6.35a46.15,46.15,0,0,0,5,0,7.35,7.35,0,0,1,4.86,1.35c.41,1.17,1.18,2.18,1.17,3.54q0,21.66,0,43.34c0,4.64,0,9.28.07,13.92C177.94,178.93,176.62,180,173.27,180Zm13.78,7.49-.13-.13Zm0,0a1.06,1.06,0,0,1,.18.35A1.06,1.06,0,0,0,187.06,187.46ZM127,212.94Zm-11.38-8.27h0Zm12.63,7.67c0-.07-.05-.17-.08-.23s.05.16.08.23Zm1.38-1.38c0-.07-.05-.17-.08-.23s.05.16.08.23Zm2.2-2.84h0a1.21,1.21,0,0,1-.12.48A1.21,1.21,0,0,0,131.79,208.12Zm7.93-7.93Zm43.26-1,.52,0Zm1,0a2.18,2.18,0,0,1-.43,0A2.18,2.18,0,0,0,184,199.15Zm2.12-.59a2.35,2.35,0,0,0,.91-.7A2.35,2.35,0,0,1,186.08,198.56Zm1.14-1a2,2,0,0,1-.21.3A2,2,0,0,0,187.22,197.54Zm.67-8.79a1.48,1.48,0,0,1,.33,1A1.48,1.48,0,0,0,187.89,188.75Z"/><path class="cls-3" d="M186.39,94.18c1.16,3.08,1.05,5.92-1.51,8.34-1.63,1.54-3.65,1.8-5.75,1.8H133.3q-30.92,0-61.84,0a16.31,16.31,0,0,1-5.25-.74c-3.5-2.83-4.48-6.23-2.74-9.42a7.25,7.25,0,0,1,2.16-2.41c2.78-2,5.58-4,8.38-6L87,76.6q16.81-11.88,33.64-23.75c2.86-2,5.63-2.12,8.46-.14,8.11,5.69,16.16,11.47,24.25,17.19,5.55,3.92,11.14,7.77,16.68,11.7,4.8,3.4,9.55,6.88,14.33,10.32A7.89,7.89,0,0,1,186.39,94.18Z"/><path class="cls-3" d="M185.9,187l.37.19a2.2,2.2,0,0,0,1.07,1.1.18.18,0,0,0,.15.23,25.66,25.66,0,0,1,.26,7.87c-.06.15-.11.29-.17.43l-2.33,2-.77.17q-21.37,0-42.74,0h-3.17c-23.79,0-47.57-.06-71.35,0-3.44,0-5.69-1.58-5.44-5.38,0-.63,0-1.26,0-1.89,0-3.7,1.58-5.21,5.26-5.21l57.9,0q28.44,0,56.88,0A11.84,11.84,0,0,1,185.9,187Z"/><path class="cls-3" d="M133.53,146.77v27.88c0,3.41-1.71,5.22-5.12,5.34-2.47.08-4.94.1-7.4,0a4.57,4.57,0,0,1-4.74-5q0-28.14,0-56.27c0-3.37,1.85-5.16,5.26-5.2,2.06,0,4.13,0,6.2,0,4.1,0,5.78,1.65,5.78,5.69q0,13.77,0,27.53Z"/><path class="cls-3" d="M178.87,175.67c-.93,3.26-2.25,4.32-5.6,4.29a62.54,62.54,0,0,1-8.87-.22,10.92,10.92,0,0,1-2.46-2.29,20.7,20.7,0,0,1-.41-6.13c0-17.15.07-34.29-.05-51.44,0-4.36,2.16-6.65,6.3-6.35a46.15,46.15,0,0,0,5,0,7.35,7.35,0,0,1,4.86,1.35c.41,1.17,1.18,2.18,1.17,3.54q0,21.66,0,43.34C178.8,166.39,178.84,171,178.87,175.67Z"/><path class="cls-3" d="M88.13,147q0,13.94,0,27.87c0,3.42-1.7,5.23-5.11,5.34-2.47.08-4.94.11-7.41,0a4.56,4.56,0,0,1-4.73-5q0-28.12,0-56.26c0-3.37,1.86-5.17,5.27-5.21,2.06,0,4.13,0,6.2,0,4.1,0,5.77,1.64,5.78,5.69q0,13.77,0,27.53Z"/><path class="cls-3" d="M178.72,146.46q0,13.95,0,27.88c0,3.41-1.7,5.23-5.12,5.34-2.46.08-4.94.1-7.4,0a4.55,4.55,0,0,1-4.73-5q0-28.14,0-56.27c0-3.37,1.85-5.16,5.26-5.2,2.07,0,4.14,0,6.2,0,4.1,0,5.78,1.65,5.79,5.7q0,13.76,0,27.52Z"/><rect class="cls-3" x="61.67" y="186.12" width="127.01" height="13.22" rx="6.61"/><path class="cls-2" d="M125.05,75.4c3.18-4.94,8-5.24,11.31-3.73,4.15,1.87,6,6.54,4.44,11.3a20.76,20.76,0,0,1-6.73,9.49c-2.47,2.08-5.18,3.89-7.85,5.73a2.08,2.08,0,0,1-1.82.2c-5-2.79-9.54-6.12-12.89-10.83-2-2.83-3.38-5.92-2.64-9.54a8.39,8.39,0,0,1,6.68-6.88c3.65-.58,6.74.45,8.87,3.66.12.18.24.34.37.51S124.88,75.34,125.05,75.4Z"/></svg>