<?xml version="1.0" encoding="utf-8"?>
<!-- Generator: Adobe Illustrator 26.0.2, SVG Export Plug-In . SVG Version: 6.00 Build 0)  -->
<svg version="1.1" id="圖層_1" xmlns="http://www.w3.org/2000/svg" xmlns:xlink="http://www.w3.org/1999/xlink" x="0px" y="0px"
	 viewBox="0 0 250 250" style="enable-background:new 0 0 250 250;" xml:space="preserve">
<style type="text/css">
	.st0{fill:#7EAFFB;}
	.st1{fill:#729CE0;}
	.st2{fill:#FAFAFA;}
	.st3{fill:none;stroke:#729CE0;stroke-miterlimit:10;}
	.st4{fill:#F4B22C;}
	.st5{fill:#FFA000;}
	.st6{fill:none;}
	.st7{fill:#F9FAFA;}
	.st8{fill:#166CA9;}
	.st9{fill:#119DD0;}
	.st10{fill:#0F83B0;}
	.st11{fill:#FAFBFB;}
	.st12{fill:none;stroke:#FFFFFF;stroke-miterlimit:10;}
	.st13{fill:#FFFFFF;}
	.st14{fill:#BEFF73;}
	.st15{fill:#905CA2;}
	.st16{fill:#F7B52C;}
	.st17{fill:#5F1985;}
</style>
<g>
	<g>
		<g>
			<circle class="st15" cx="125" cy="125" r="125"/>
		</g>
	</g>
	<g>
		<path class="st16" d="M154,141.34c-0.15-1.7-0.35-3.79-0.64-6.09c-0.31-2.52-1.62-15.67-6.64-26.4
			c-2.57-5.49-5.75-10.26-8.9-14.21c-6.17-7.74-12.2-12.35-13.17-13.07c0,0,0,0,0,0c-11.24-8.4-25.01-11.51-38.95-8.56
			c-10.54,2.23-19.59,7.76-26.16,15.97c-6.57,8.22-9.97,18.27-9.84,29.06c0.12,9.77,1.92,19.38,5.34,28.55
			c3.13,8.4,7.71,16.63,13.6,24.47c11.78,15.68,25.39,25.96,41.6,31.43c1.83,0.62,3.53,1.12,5.15,1.51c2.41,0.59,4.79-1.05,5.13-3.5
			l1.32-9.56c0.29-2.09-1.02-4.07-3.06-4.62c-0.87-0.24-1.79-0.52-2.79-0.86c-12.66-4.27-23.45-12.52-32.98-25.2
			c-4.86-6.46-8.6-13.18-11.13-19.96c-2.7-7.23-4.12-14.8-4.21-22.49c-0.08-6.6,1.96-12.69,5.91-17.63
			c3.94-4.93,9.42-8.25,15.85-9.61c8.87-1.88,17.4,0.04,24.54,5.42c0.98,0.74,1.93,1.54,2.85,2.4c1.67,1.51,3.89,3.7,6.2,6.48
			c2.62,3.15,5.33,7.06,7.45,11.58c3.14,6.71,4.47,15.7,4.87,19.06c0.09,0.71-0.47,1.34-1.19,1.34c-1.94,0-5.59,0-8.36,0.01
			c-1.68,0.01-3.02,1.4-2.97,3.08l0.09,3.03c0.05,1.62,1.37,2.91,2.99,2.91h23.95C152.28,145.9,154.21,143.79,154,141.34z"/>
		<path class="st13" d="M200.21,114.64c-0.42-6.38-2.15-12.48-5.15-18.12c-6.82-12.83-18.97-21.57-33.34-23.99
			c-13.15-2.21-26.33,1.15-36.79,9.26c-0.09-0.07-0.19-0.14-0.28-0.21c0.97,0.72,7,5.32,13.17,13.07c6.16-4.04,13.55-5.64,20.91-4.4
			c8.82,1.49,16.28,6.85,20.46,14.71c3.72,6.99,4.14,14.72,1.35,24.33c-2.49,8.55-6.55,15.42-12.06,20.44
			c-5.67,5.16-12.93,8.38-21.56,9.58c-8.67,1.2-16.54,0.25-23.39-2.83c-5.89-2.65-11.08-6.89-15.47-12.63
			c-1.34-1.75-3.79-2.19-5.64-0.98l-8.04,5.26c-2.02,1.32-2.51,4.08-1.06,6.02c6.3,8.44,13.97,14.73,22.85,18.72
			c9.98,4.48,21.16,5.91,33.22,4.24c12.29-1.7,22.78-6.44,31.18-14.08c8-7.28,13.8-16.94,17.22-28.71
			C199.8,127.41,200.61,120.8,200.21,114.64z"/>
		<path class="st13" d="M92.27,123.99v-5.86c0-3.26,2.56-6.02,5.82-6.11c3.38-0.09,6.16,2.62,6.16,5.99v5.99
			c0,1.65,1.34,2.99,2.99,2.99h2.99c1.65,0,2.99-1.34,2.99-2.99v-5.8c0-8.24-6.58-15.08-14.83-15.16
			c-8.32-0.08-15.12,6.67-15.12,14.97v5.99c0,1.65,1.34,2.99,2.99,2.99h2.99C90.93,126.99,92.27,125.65,92.27,123.99z"/>
		<circle class="st13" cx="164.62" cy="115.01" r="8.98"/>
	</g>
</g>
</svg>
