<svg id="圖層_1" data-name="圖層 1" xmlns="http://www.w3.org/2000/svg" viewBox="0 0 250 250"><defs><style>.cls-1{fill:#f7b52c;}.cls-2{fill:#ffa300;}.cls-3{fill:#fdfdfd;}</style></defs><circle class="cls-1" cx="125" cy="125" r="125"/><path class="cls-2" d="M157.33,79.88c.4-.48.66-.17.94.15,4.12,4.69,8.75,8.87,13.14,13.29Q177.2,99.17,183,105l9.78,9.77,9.26,9.26,12.25,12.24q4.16,4.16,8.32,8.32,9,9,18.09,18.09c.81.82,2.24,1.26,2,2.84a1.67,1.67,0,0,0,.18.28l-.21.58c-1.56,2.76-2.31,5.87-3.64,8.74-.52,1.13-1.51,2.13-1.4,3.53a.5.5,0,0,0-.12.28A1.11,1.11,0,0,0,237,180a.5.5,0,0,0-.08.31c-.58.14-.66.55-.58,1.05a.46.46,0,0,0-.11.28c-.18.13-.43.22-.51.4-1.11,2.33-2.52,4.49-3.75,6.75-1.12,2.06-2.77,3.81-3.52,6.08a.23.23,0,0,0-.05.21,1.46,1.46,0,0,0-1,1.44h0l-.33.35h0a.63.63,0,0,0-.62.72l0,0-.26.32,0,.08a10.2,10.2,0,0,0-2.7,3.64l-.36.44c-1.32.67-1.93,2-2.81,3.05a117.32,117.32,0,0,1-14.44,14.45c-2.56,2.15-5.14,4.28-7.71,6.42L198,226c-.44-.05-.65.18-.73.58l-.65.46a2.11,2.11,0,0,0-1.73,1.22h0a2.33,2.33,0,0,0-1.24.47c-2.76,1.72-5.54,3.41-8.3,5.12-1.63,1-3.63,1.41-5,2.89l-.34.07c-2.66.57-4.93,2.09-7.41,3.09a138.31,138.31,0,0,1-22.58,6.95c-2.51.54-5.06.9-7.6,1.35-.34-.95-1.27-1.38-1.93-2q-28.43-28.45-56.88-56.86A19.31,19.31,0,0,1,80.53,186a10.65,10.65,0,0,0,2.13.36c27.58,0,55.16-.09,82.75,0a7.1,7.1,0,0,0,7.51-7.51c-.14-20.68-.06-41.35-.06-62,0-5.32-2.27-7.6-7.59-7.6h-76c-.9,0-1.8-.07-2.69-.11.23-1.2-1.29-1.31-1.42-2.29a4.92,4.92,0,0,1,1-.2c3.33,0,6.66,0,10,.09,1.24,0,1.92-.18,2-1.73A34.69,34.69,0,0,1,101,92.62a22.18,22.18,0,0,1,4.38-7.36c6.66-6.8,14.78-9.56,24.15-8,6.87,1.15,12.72,4.39,16.61,10.32a35.05,35.05,0,0,1,5.53,17.51c.07,1.23.38,1.63,1.66,1.59,3.5-.1,7-.15,10.49,0,1.54.07,1.69-.52,1.58-1.72a69.24,69.24,0,0,0-1.86-10.78A54.14,54.14,0,0,0,157.33,79.88Z"/><path class="cls-3" d="M86.6,109.16c.89,0,1.79.11,2.69.11h76c5.32,0,7.59,2.28,7.59,7.6,0,20.68-.08,41.35.06,62a7.1,7.1,0,0,1-7.51,7.51c-27.59-.14-55.17-.08-82.75,0a10.65,10.65,0,0,1-2.13-.36v0l-.69-.45a10.17,10.17,0,0,1-3-4.23q0-33.47,0-66.92c1.63-4.23,3-5.14,7.75-5.16C85.25,109.27,85.92,109.2,86.6,109.16Zm32.77,50.72h0v8.79c0,.79.05,1.38,1.19,1.33,2.53-.12,5.07-.17,7.6-.06,1.66.08,2.25-.3,2.21-2.11-.14-5.29,0-10.59-.08-15.88a3.14,3.14,0,0,1,1.64-3.14c4.73-3,6.68-8.77,5.07-14.4a12.77,12.77,0,0,0-24.35.13,12.63,12.63,0,0,0,5.2,14.34,3,3,0,0,1,1.54,2.89C119.32,154.47,119.37,157.17,119.37,159.88Z"/><path class="cls-3" d="M157.33,79.88a54.14,54.14,0,0,1,6.2,14.33A69.24,69.24,0,0,1,165.39,105c.11,1.2,0,1.79-1.58,1.72-3.49-.15-7-.1-10.49,0-1.28,0-1.59-.36-1.66-1.59a35.05,35.05,0,0,0-5.53-17.51c-3.89-5.93-9.74-9.17-16.61-10.32-9.37-1.59-17.49,1.17-24.15,8A22.18,22.18,0,0,0,101,92.62,34.69,34.69,0,0,0,98.08,105c0,1.55-.71,1.75-2,1.73-3.32-.06-6.65-.08-10-.09a4.92,4.92,0,0,0-1,.2c-.88-.07-.91-.69-.86-1.34a56.23,56.23,0,0,1,6.19-22.38C95,74.65,102,69.08,110.82,65.87c12.18-4.43,24-3.19,35.18,3.39A34.75,34.75,0,0,1,157.33,79.88Z"/><path class="cls-1" d="M76.83,114.44q0,33.47,0,66.92c-.55-.41-.39-1-.39-1.56q0-32.33,0-64.65c0-.36-.19-.76.13-1.08a.15.15,0,0,1,.12.06A2.85,2.85,0,0,1,76.83,114.44Z"/><path class="cls-2" d="M119.37,159.88c0-2.71-.05-5.41,0-8.11a3,3,0,0,0-1.54-2.89,12.63,12.63,0,0,1-5.2-14.34,12.77,12.77,0,0,1,24.35-.13c1.61,5.63-.34,11.4-5.07,14.4A3.14,3.14,0,0,0,130.3,152c.08,5.29-.06,10.59.08,15.88,0,1.81-.55,2.19-2.21,2.11-2.53-.11-5.07-.06-7.6.06-1.14.05-1.19-.54-1.19-1.33v-8.79Z"/><rect class="cls-3" x="104.87" y="124.01" width="40.63" height="21.44"/><path class="cls-2" d="M125.25,130.23c3.18-4.94,8-5.24,11.31-3.73,4.15,1.87,6,6.54,4.44,11.3a20.76,20.76,0,0,1-6.73,9.49c-2.47,2.08-5.18,3.89-7.85,5.73a2.08,2.08,0,0,1-1.82.2c-5-2.79-9.54-6.12-12.89-10.83-2-2.83-3.37-5.92-2.64-9.54a8.39,8.39,0,0,1,6.68-6.88c3.65-.58,6.74.45,8.87,3.66.12.18.24.35.37.51S125.08,130.17,125.25,130.23Z"/></svg>