<svg id="圖層_1" data-name="圖層 1" xmlns="http://www.w3.org/2000/svg" viewBox="0 0 250 250"><defs><style>.cls-1{fill:#f3b12c;}.cls-2{fill:#ff9f00;}.cls-3{fill:#f9f9f9;}</style></defs><rect class="cls-1" width="250" height="250" rx="30"/><path class="cls-2" d="M246.06,156.23s0-.09,0-.13L186.5,96.5,186,96,157.5,67.5h-65l-23,31-3,86,.7.7,59.42,59.42,4.67,5.38H220a30,30,0,0,0,30-30V160.35Z"/><path class="cls-3" d="M125.28,186.29q-26,0-52,0c-7.21,0-9.87-2.63-9.88-9.78,0-25.18,0-50.37-.05-75.56a11.53,11.53,0,0,1,2.5-7.49q9.56-12.54,18.75-25.38a9.66,9.66,0,0,1,8.6-4.38q31.89.15,63.79,0c3.33,0,5.87.94,7.89,3.69,6.82,9.3,13.75,18.52,20.64,27.77,1.2,1.6,1.23,3.45,1.23,5.35,0,25.52,0,51.05,0,76.58,0,6.52-2.79,9.17-9.35,9.18Q151.3,186.31,125.28,186.29Zm-.48-84.65c16.15,0,32.3,0,48.45,0,1.5,0,4,.9,4.12-1.58a5.73,5.73,0,0,0-3.22-5.38c-1.13-.54-2.67-.25-4-.25-12.41,0-24.82-.1-37.23,0-3.26,0-4.6-.89-4.42-4.32.26-4.75,0-9.53.11-14.28.08-2.7-.6-4-3.66-4-3.25,0-3.51,1.73-3.47,4.22.09,4.59-.18,9.2.08,13.77.19,3.51-.87,4.82-4.54,4.67-6.79-.28-13.6-.08-20.4-.08-6.29,0-12.58.09-18.87,0-3.73-.06-4.83,2.85-5,5.29-.22,3.23,3,1.92,4.65,1.93C93.18,101.7,109,101.65,124.8,101.64Z"/><path class="cls-2" d="M125.08,130.3c4.63-7.19,11.62-7.63,16.48-5.43,6,2.73,8.68,9.53,6.46,16.47-1.8,5.64-5.38,10.1-9.8,13.82-3.6,3-7.55,5.68-11.44,8.36a3,3,0,0,1-2.66.29c-7.24-4.08-13.9-8.92-18.78-15.78-2.93-4.13-4.92-8.63-3.85-13.91s4.83-9.24,9.73-10c5.32-.85,9.82.66,12.94,5.34.17.25.34.5.53.74C124.72,130.21,124.82,130.21,125.08,130.3Z"/></svg>