<?xml version="1.0" encoding="utf-8"?>
<!-- Generator: Adobe Illustrator 23.0.2, SVG Export Plug-In . SVG Version: 6.00 Build 0)  -->
<svg version="1.1" id="e9fbb2fa-8bad-482f-994f-55e7ed2ed05b"
	 xmlns="http://www.w3.org/2000/svg" xmlns:xlink="http://www.w3.org/1999/xlink" x="0px" y="0px" viewBox="0 0 112 68.6"
	 style="enable-background:new 0 0 112 68.6;" xml:space="preserve">
<style type="text/css">
	.st0{fill:#595757;}
</style>
<title>icon</title>
<g>
	<path class="st0" d="M79.7,34.7c0,0,0-0.1-0.1-0.1c-1.3-2.6-4.5-3.6-7.1-2.3c-0.4,0.2-0.8,0.4-1.1,0.7l-10,6.4
		c-1-1.5-2.6-2.5-4.4-2.6l-10-0.2c-2.5,0-5.7,0.1-8.3,1.6c-1.2,0.8-2.3,1.8-3.1,3L35,42c-0.9,1.2-1.9,2.3-2.8,3.5
		c-0.4,0.5-0.3,1.2,0.2,1.6c0.2,0.2,0.5,0.3,0.7,0.3c0.4,0,0.7-0.2,0.9-0.5c0.9-1.2,1.9-2.3,2.8-3.5l0.6-0.7
		c0.6-0.9,1.5-1.8,2.4-2.4c2.2-1.3,5-1.4,7.2-1.3l10,0.2c1.5,0,2.7,1.1,2.8,2.6c-0.1,0.5-0.7,2.7-2.9,2.5l-11.6-0.1
		c-0.6,0.1-1.1,0.6-1.1,1.3c0.1,0.6,0.5,1,1.1,1.1l11.6,0.1c3.6,0.2,5-2.9,5.3-4.6c0-0.1,0-0.1,0-0.2L72.8,35c0.8-0.7,1.8-1,2.8-0.8
		c0.8,0.3,1.5,0.8,1.9,1.5c0.4,1.2,0,2.4-1,3.2l-13.9,8.7c-1,0.7-2.1,1.3-3.3,1.6c-1.5,0.2-3,0.2-4.5,0c-0.6,0-1.3-0.1-1.9-0.1h-3.5
		L46.1,49c-1.7-0.2-3.3,0.3-4.6,1.4c-0.9,0.8-1.7,1.7-2.5,2.5c-0.3,0.4-0.8,0.9-1.8,2c-0.5,0.5-0.5,1.2,0,1.7
		c0.2,0.2,0.5,0.3,0.8,0.3s0.6-0.1,0.8-0.4c1-1.1,1.5-1.6,1.8-2c0.7-0.9,1.5-1.7,2.4-2.4c0.7-0.7,1.5-0.8,2.9-0.8l3.3,0.1l3.5,0.1
		c0.6,0,1.2,0.1,1.8,0.1c1.7,0.2,3.4,0.2,5.1-0.1c1.5-0.3,3-1,4.2-1.9l14-8.8C79.8,39.4,80.5,36.9,79.7,34.7z"/>
	<path class="st0" d="M58.6,33.6c6,0,10.9-4.9,10.9-10.9s-4.9-10.9-10.9-10.9s-10.9,4.9-10.9,10.9C47.6,28.8,52.5,33.6,58.6,33.6z
		 M58.6,14.1c4.7,0,8.6,3.8,8.6,8.6c0,4.7-3.8,8.6-8.6,8.6c-4.8,0-8.6-3.8-8.6-8.6C50,18,53.8,14.1,58.6,14.1z"/>
	<path class="st0" d="M55.3,27.4c0.7,0.4,1.4,0.7,2.2,0.8c0.2,0,0.4,0.2,0.3,0.4c0,0.3,0.2,0.5,0.4,0.6c0.3,0.1,0.7,0.1,0.9-0.1
		c0.1-0.1,0.2-0.3,0.2-0.4c0-0.2,0.2-0.4,0.4-0.4c0.9,0,1.8-0.3,2.6-0.6c0.6-0.3,1-0.9,1.2-1.5c0.2-0.7,0.1-1.4-0.1-2
		c-0.2-0.5-0.6-0.9-1-1.2c-0.4-0.2-0.7-0.4-1.1-0.6l-1.6-0.5c-0.2-0.1-0.3-0.2-0.3-0.5V19c0-0.2,0.1-0.3,0.3-0.3
		c1,0.4,1.7,0.6,2.2,0.7c0.3,0.1,0.7,0,0.9-0.3c0.2-0.4,0.1-0.8-0.3-1.1c-0.5-0.3-1.1-0.5-1.7-0.7c-0.4-0.1-0.7-0.2-1.1-0.2
		c-0.2,0-0.4-0.2-0.3-0.4c0-0.2-0.1-0.5-0.3-0.6c-0.3-0.1-0.7-0.1-1,0.1c-0.1,0.1-0.2,0.3-0.2,0.5s-0.1,0.3-0.3,0.4c0,0,0,0-0.1,0
		c-0.8,0-1.5,0.2-2.2,0.6c-1,0.5-1.6,1.5-1.3,2.6c0.2,0.7,0.7,1.3,1.4,1.7c0.7,0.4,1.4,0.8,2.2,1c0.2,0.1,0.3,0.2,0.3,0.5v2.9
		c0,0.2-0.1,0.3-0.3,0.2c-0.5-0.2-1-0.5-1.5-0.8c-0.4-0.3-0.8-0.5-1.1-0.7c-0.2-0.1-0.4-0.2-0.6-0.2c-0.3,0-0.6,0.3-0.7,0.6
		c-0.1,0.2,0,0.4,0.1,0.6C54.1,26.6,54.6,27.1,55.3,27.4z M59.7,23.8c0.4,0.2,0.9,0.3,1.3,0.6c0.4,0.2,0.7,0.6,0.9,1
		c0,0.4-0.2,0.8-0.5,1.1c-0.5,0.3-1.1,0.5-1.6,0.5c-0.2,0-0.3-0.1-0.3-0.2v-0.1V24h-0.2C59.3,23.8,59.4,23.7,59.7,23.8z M57.8,21
		c0,0.2-0.1,0.2-0.3,0.2c-0.4-0.2-0.8-0.4-1.2-0.6c-0.4-0.2-0.6-0.6-0.6-1.1c0.1-0.2,0.2-0.4,0.4-0.5c0.3-0.2,0.7-0.3,1.1-0.4h0.1
		c0.3,0,0.5,0.1,0.5,0.3V21z"/>
</g>
</svg>
