<?xml version="1.0" encoding="utf-8"?>
<!-- Generator: Adobe Illustrator 23.0.2, SVG Export Plug-In . SVG Version: 6.00 Build 0)  -->
<svg version="1.1" id="bd95584a-2d67-4f88-9cad-13a399c22ca1"
	 xmlns="http://www.w3.org/2000/svg" xmlns:xlink="http://www.w3.org/1999/xlink" x="0px" y="0px" viewBox="0 0 112 68.6"
	 style="enable-background:new 0 0 112 68.6;" xml:space="preserve">
<style type="text/css">
	.st0{fill:#595757;}
</style>
<g>
	<title>icon</title>
	<path class="st0" d="M74.7,33.8l-11-11c-0.4-0.4-1-0.8-0.9-1.6c-0.2-0.6-0.4-1.1-0.6-1.7c1.5-1.4,1.7-3.8,0.3-5.3
		c-0.5-0.6-1.2-1-2-1.2c-1.4-0.3-2.8,0.2-3.7,1.2c-1.1-0.9-2.6-1.1-3.9-0.6c-3.6,1.5-7.2,3.1-10.8,4.6c-0.7,0.2-1,0.9-0.8,1.6
		c0.1,0.2,0.2,0.4,0.4,0.5c0.8,0.8,1.6,1.6,2.4,2.4l0.3,0.3c-1.5,2.3-1.4,5.3,0.4,7.4c2.4,2.7,5.2,2.9,8.3,1.3l2.5,2.5
		c0.5,0.6,1.3,0.6,1.8,0.2c0.2-0.2,0.4-0.4,0.4-0.7c0.5-1.3,1.1-2.5,1.6-3.8c0.1-0.1,0.2-0.3,0.2-0.4l7,7c0,0,0,0,0,0.1L55.8,48
		c-0.1,0.1-0.2,0.1-0.3,0.2c-0.7,0-1.4,0-2.1,0c0-0.5,0-0.9,0-1.3c0-0.7-0.6-1.3-1.3-1.3c-0.7,0-1.3,0.6-1.3,1.3c0,0.4,0,0.8,0,1.3
		h-1.3c-2.1,0-3.8,1.7-3.8,3.7c0,0.8,0,1.6,0,2.4c-0.1,0.7,0.5,1.3,1.1,1.3c0.1,0,0.1,0,0.2,0h22.4c0.7,0.1,1.3-0.4,1.4-1.1
		c0-0.1,0-0.2,0-0.3c0-0.8,0-1.6,0-2.4c0-0.6-0.2-1.1-0.4-1.6c-0.6-1.4-2-2.2-3.5-2.1h-0.8V48c0.1-0.1,0.2-0.2,0.3-0.3
		c2.7-2.7,5.4-5.5,8.1-8.2c0.5-0.5,0.9-1,1.1-1.7C76.3,36.4,75.9,34.8,74.7,33.8z M47.2,29.3c-1.2-1.1-1.6-2.8-0.9-4.3l4.9,4.9
		C49.8,30.5,48.3,30.3,47.2,29.3z M60.1,22.5L56.5,31l-0.2,0.3c-3.8-3.8-7.6-7.6-11.5-11.5l4.5-1.9l4.3-1.9c0.6-0.4,1.4-0.2,1.9,0.4
		l4.3,4.3C60.4,21.1,60.5,21.9,60.1,22.5z M60.4,17.6c-0.6-0.6-1.2-1.2-1.8-1.7c0.3-0.4,0.7-0.6,1.2-0.5s0.9,0.4,1,0.9
		C61,16.8,60.8,17.3,60.4,17.6z M66.9,50.6c1.2,0,1.6,0.5,1.6,1.6v0.9H48.4c0-0.4,0-0.8,0-1.2c0-0.7,0.6-1.2,1.2-1.2L66.9,50.6z
		 M62.9,47.9c-0.2,0.1-0.4,0.2-0.6,0.3c-1,0-2,0-3.2,0l9.6-9.7l1.8,1.8c0,0-0.1,0.1-0.2,0.1C67.8,42.9,65.4,45.4,62.9,47.9z
		 M68.8,34.9l-0.2-0.2c-2.5-2.4-4.9-4.8-7.4-7.3c-0.2-0.2-0.3-0.5-0.1-0.7c0.3-0.7,0.6-1.3,0.9-2l8.5,8.5L68.8,34.9z M72.2,37.9
		c-0.7,0-1.2-0.6-1.2-1.3s0.6-1.2,1.3-1.2s1.2,0.6,1.2,1.3S72.9,37.9,72.2,37.9z"/>
</g>
</svg>
