<svg id="aaeb2872-6388-403f-8005-c701bd48f190" data-name="圖層 1" xmlns="http://www.w3.org/2000/svg" viewBox="0 0 112.02 68.57"><defs><style>.f27bd756-d6e5-42e1-a722-7810b14dc495{fill:#edb033;}</style></defs><title>icon-yellow</title><path class="f27bd756-d6e5-42e1-a722-7810b14dc495" d="M79.73,34.72a.42.42,0,0,0-.06-.14A5.26,5.26,0,0,0,71.52,33l-10,6.39a5.51,5.51,0,0,0-4.41-2.56l-10.06-.2c-2.5-.05-5.7.09-8.35,1.6a10.89,10.89,0,0,0-3.1,3l-.59.74c-.94,1.18-1.89,2.35-2.81,3.54a1.17,1.17,0,0,0,.92,1.9,1.19,1.19,0,0,0,.93-.45c.92-1.18,1.86-2.35,2.79-3.52l.6-.74a9.15,9.15,0,0,1,2.41-2.4C42,39,44.82,38.9,47,39l10,.2a2.76,2.76,0,0,1,2.76,2.57c-.11.53-.68,2.65-2.87,2.54l-11.63-.09h0a1.18,1.18,0,0,0,0,2.35l11.57.09c3.58.17,5-2.94,5.28-4.62a1.15,1.15,0,0,0,0-.19v0l10.69-6.83a3.6,3.6,0,0,1,2.85-.82,3.35,3.35,0,0,1,1.88,1.5,2.94,2.94,0,0,1-1,3.2L62.64,47.57a9.42,9.42,0,0,1-3.35,1.58,19.56,19.56,0,0,1-4.53,0c-.64,0-1.26-.09-1.88-.11L49.34,49l-3.26-.1a5.84,5.84,0,0,0-4.61,1.4A29.76,29.76,0,0,0,39,52.85c-.35.4-.8.92-1.78,2a1.18,1.18,0,0,0,0,1.66,1.2,1.2,0,0,0,.81.32,1.16,1.16,0,0,0,.85-.38c1-1.08,1.48-1.62,1.84-2A29.1,29.1,0,0,1,43.1,52c.73-.7,1.55-.8,2.9-.76l3.27.11,3.53.11c.59,0,1.19.06,1.8.11a21.68,21.68,0,0,0,5.09-.06,11.5,11.5,0,0,0,4.22-1.92l14-8.83A5.31,5.31,0,0,0,79.73,34.72Z"/><path class="f27bd756-d6e5-42e1-a722-7810b14dc495" d="M58.58,33.65A10.94,10.94,0,1,0,47.63,22.71,10.95,10.95,0,0,0,58.58,33.65Zm0-19.53A8.6,8.6,0,1,1,50,22.71,8.61,8.61,0,0,1,58.58,14.12Z"/><path class="f27bd756-d6e5-42e1-a722-7810b14dc495" d="M55.27,27.43a7.08,7.08,0,0,0,2.19.83.36.36,0,0,1,.34.39.61.61,0,0,0,.43.6.94.94,0,0,0,.92-.12.85.85,0,0,0,.18-.44.36.36,0,0,1,.37-.36,7.36,7.36,0,0,0,2.61-.62,2.51,2.51,0,0,0,1.22-1.55,3,3,0,0,0-.14-2,2.66,2.66,0,0,0-1-1.16,7.61,7.61,0,0,0-1.13-.59l-1.63-.53a.46.46,0,0,1-.34-.45V19c0-.23.12-.31.34-.26,1,.35,1.74.58,2.18.69a.86.86,0,0,0,.87-.31.78.78,0,0,0-.29-1.08,6.28,6.28,0,0,0-1.69-.67,9.5,9.5,0,0,0-1.07-.2.37.37,0,0,1-.34-.4.64.64,0,0,0-.35-.59,1,1,0,0,0-1,.12.67.67,0,0,0-.19.46.33.33,0,0,1-.34.37,5.85,5.85,0,0,0-2.18.56,2.41,2.41,0,0,0-1.35,2.63A2.84,2.84,0,0,0,55.27,22,10.62,10.62,0,0,0,57.46,23a.46.46,0,0,1,.34.46v2.91c0,.23-.12.3-.35.23a8.62,8.62,0,0,1-1.51-.77c-.37-.27-.75-.51-1.12-.73a1.08,1.08,0,0,0-.57-.22.78.78,0,0,0-.7.57.64.64,0,0,0,.09.59A5.56,5.56,0,0,0,55.27,27.43ZM59.34,24c0-.23.12-.3.36-.23a9.29,9.29,0,0,1,1.26.56,1.53,1.53,0,0,1,.86,1,1.2,1.2,0,0,1-.51,1.07,3.33,3.33,0,0,1-1.63.49.29.29,0,0,1-.34-.32Zm-1.88-2.81a9.06,9.06,0,0,1-1.21-.58,1,1,0,0,1-.56-1.07,1,1,0,0,1,.38-.55,2.85,2.85,0,0,1,1.12-.38h.14c.31,0,.47.07.47.29V21C57.8,21.17,57.69,21.25,57.46,21.19Z"/></svg>