<svg id="f7386397-73fa-4d4f-9e81-cb52538500c3" data-name="圖層 1" xmlns="http://www.w3.org/2000/svg" viewBox="0 0 112.02 68.57"><defs><style>.a78a8333-90fb-46a1-883f-88d300551908{fill:#edb033;}</style></defs><title>icon-yellow</title><path class="a78a8333-90fb-46a1-883f-88d300551908" d="M43.92,42.55A7.14,7.14,0,0,0,44.1,44a7.89,7.89,0,0,0,4.32,5.25,7.73,7.73,0,0,0,3.21.73h.22a7.84,7.84,0,0,0,7.52-6,6,6,0,0,0,.18-1.49v0a1.92,1.92,0,0,0,0-.24v0a13,13,0,0,0-1.87-5.77c-.66-1.26-1.4-2.43-2-3.41l-1-1.56-1.19-1.76-.13-.19a.83.83,0,0,0-.11-.15l0,0a1.88,1.88,0,0,0-1.34-.72h-.19a1.92,1.92,0,0,0-1.36.72v0l-.12.15-.13.19-1.18,1.76q-.54.81-1,1.56c-.63,1-1.37,2.14-2,3.41a13.29,13.29,0,0,0-1.87,5.77v.32Zm4.53-3h2.17V37.36a1.12,1.12,0,1,1,2.23,0v2.17H55a1.12,1.12,0,0,1,0,2.23H52.85v2.18a1.12,1.12,0,0,1-2.23,0V41.76H48.45a1.12,1.12,0,1,1,0-2.23Z"/><path class="a78a8333-90fb-46a1-883f-88d300551908" d="M75.52,11.89h-39A1.12,1.12,0,0,0,35.39,13V17.4a1.12,1.12,0,0,0,1.11,1.12h9.32a2,2,0,0,0-.26,1v1.36h-4a1.12,1.12,0,0,0-.89.45l-4.78,6.32a1.12,1.12,0,0,0-.23.68V55.42a1.12,1.12,0,0,0,1.12,1.12h30a1.12,1.12,0,0,0,1.11-1.12V28.31a1.11,1.11,0,0,0-.22-.68l-4.78-6.32a1.15,1.15,0,0,0-.9-.45H57.69V19.5a2,2,0,0,0-.25-1H70v39a1.12,1.12,0,0,0,1.12,1.12h4.39a1.12,1.12,0,0,0,1.12-1.12V13A1.12,1.12,0,0,0,75.52,11.89ZM61.38,23.09l4.22,5.59V54.31H37.87V48.46h3.94a1.12,1.12,0,0,0,0-2.23H37.87V43h3.94a1.12,1.12,0,0,0,0-2.23H37.87V37.55H42a1.12,1.12,0,1,0,0-2.23H37.87V28.68l4.23-5.59Zm13,33.35H72.24v-39a1.11,1.11,0,0,0-1.11-1.11H37.62V14.12H74.4Z"/></svg>