<?xml version="1.0" encoding="utf-8"?>
<!-- Generator: Adobe Illustrator 23.0.2, SVG Export Plug-In . SVG Version: 6.00 Build 0)  -->
<svg version="1.1" id="b98a16c6-6e2f-4371-9af4-d931535c7d68"
	 xmlns="http://www.w3.org/2000/svg" xmlns:xlink="http://www.w3.org/1999/xlink" x="0px" y="0px" viewBox="0 0 112 68.6"
	 style="enable-background:new 0 0 112 68.6;" xml:space="preserve">
<style type="text/css">
	.st0{fill:#EDB033;}
</style>
<title>icon-yellow</title>
<path class="st0" d="M74.7,33.8l-11-11c-0.4-0.4-1-0.8-0.9-1.6l0,0c-0.2-0.6-0.4-1.1-0.6-1.7c1.5-1.4,1.7-3.8,0.3-5.3
	c-0.5-0.6-1.2-1-2-1.2c-1.4-0.3-2.8,0.2-3.7,1.2c-1.1-0.9-2.6-1.1-3.9-0.6c-3.6,1.5-7.2,3.1-10.8,4.6c-0.7,0.2-1,0.9-0.8,1.6
	c0.1,0.2,0.2,0.4,0.4,0.5c0.8,0.8,1.6,1.6,2.4,2.4l0.3,0.3c-1.5,2.3-1.4,5.3,0.4,7.4c2.4,2.7,5.2,2.9,8.3,1.3l2.5,2.5
	c0.5,0.6,1.3,0.6,1.8,0.2c0.2-0.2,0.4-0.4,0.4-0.7c0.5-1.3,1.1-2.5,1.6-3.8c0.1-0.1,0.2-0.3,0.2-0.4l7,7c0,0,0,0,0,0.1L55.8,48
	c-0.1,0.1-0.2,0.1-0.3,0.2c-0.7,0-1.4,0-2.1,0c0-0.5,0-0.9,0-1.3c0-0.7-0.6-1.3-1.3-1.3s-1.3,0.6-1.3,1.3c0,0.4,0,0.8,0,1.3h-1.3
	c-2.1,0-3.8,1.7-3.8,3.7c0,0,0,0,0,0c0,0.8,0,1.6,0,2.4c-0.1,0.7,0.5,1.3,1.1,1.3c0.1,0,0.1,0,0.2,0h22.4c0.7,0.1,1.3-0.4,1.4-1.1
	c0-0.1,0-0.2,0-0.3c0-0.8,0-1.6,0-2.4c0-0.6-0.2-1.1-0.4-1.6c-0.6-1.4-2-2.2-3.5-2.1h-0.8V48c0.1-0.1,0.2-0.2,0.3-0.3
	c2.7-2.7,5.4-5.5,8.1-8.2c0.5-0.5,0.9-1,1.1-1.7C76.3,36.4,75.9,34.8,74.7,33.8z M47.2,29.3c-1.2-1.1-1.6-2.8-0.9-4.3l4.9,4.9
	C49.8,30.5,48.3,30.3,47.2,29.3z M60.1,22.5L56.5,31l-0.2,0.3c-3.8-3.8-7.6-7.6-11.5-11.5l4.5-1.9l4.3-1.9c0.6-0.4,1.4-0.2,1.9,0.4
	l4.3,4.3C60.4,21.1,60.5,21.9,60.1,22.5z M60.4,17.6c-0.6-0.6-1.2-1.2-1.8-1.7c0.3-0.4,0.7-0.6,1.2-0.5c0.5,0.1,0.9,0.4,1,0.9
	C61,16.8,60.8,17.3,60.4,17.6z M61.2,27.4c-0.2-0.2-0.3-0.5-0.1-0.7c0.3-0.7,0.6-1.3,0.9-2l8.5,8.5l-1.7,1.7l-0.2-0.2
	C66.1,32.3,63.7,29.9,61.2,27.4z M66.9,50.6c1.2,0,1.6,0.5,1.6,1.6v0.9H48.4c0-0.4,0-0.8,0-1.2c0-0.7,0.6-1.2,1.2-1.2L66.9,50.6
	L66.9,50.6z M70.3,40.4c-2.5,2.5-4.9,5-7.4,7.5c-0.2,0.1-0.4,0.2-0.6,0.3c-1,0-2,0-3.2,0l9.6-9.7l1.8,1.8
	C70.5,40.2,70.4,40.3,70.3,40.4z M72.2,37.9c-0.7,0-1.2-0.6-1.2-1.3c0-0.7,0.6-1.2,1.3-1.2c0.7,0,1.2,0.6,1.2,1.3
	C73.5,37.4,72.9,37.9,72.2,37.9L72.2,37.9z"/>
<path class="st0" d="M47.9,40.2c0.7,0,1.3-0.5,1.3-1.2c0,0,0,0,0,0c0-0.6,0-1.2,0-1.8s0-1.2,0-1.8c0.1-0.7-0.4-1.3-1.1-1.4
	c-0.7-0.1-1.3,0.4-1.4,1.1c0,0.1,0,0.1,0,0.2v3.6C46.6,39.6,47.2,40.2,47.9,40.2C47.9,40.2,47.9,40.2,47.9,40.2z"/>
<path class="st0" d="M42,28.3c0-0.7-0.6-1.2-1.2-1.2c0,0,0,0,0,0c-1.2,0-2.3,0-3.5,0c-0.7,0-1.3,0.6-1.3,1.3s0.6,1.3,1.3,1.3h3.5
	C41.4,29.6,42,29,42,28.3C42,28.3,42,28.3,42,28.3z"/>
<path class="st0" d="M41.7,32.7c-0.6,0.6-1.2,1.1-1.7,1.8c-0.2,0.2-0.3,0.4-0.4,0.7c-0.1,0.6,0.2,1.1,0.8,1.3c0.4,0.2,1,0.1,1.3-0.2
	c0.6-0.6,1.2-1.2,1.8-1.8c0.5-0.5,0.5-1.3,0-1.8c0,0,0,0,0,0C42.9,32.2,42.2,32.2,41.7,32.7C41.7,32.7,41.7,32.7,41.7,32.7z"/>
</svg>
