<?xml version="1.0" encoding="utf-8"?>
<!-- Generator: Adobe Illustrator 23.0.2, SVG Export Plug-In . SVG Version: 6.00 Build 0)  -->
<svg version="1.1" id="ba69fddd-e209-4e67-9f79-d36f1fca1edf"
	 xmlns="http://www.w3.org/2000/svg" xmlns:xlink="http://www.w3.org/1999/xlink" x="0px" y="0px" viewBox="0 0 112 68.6"
	 style="enable-background:new 0 0 112 68.6;" xml:space="preserve">
<style type="text/css">
	.st0{fill:#595757;}
</style>
<g>
	<title>icon</title>
	<g>
		<path class="st0" d="M48.4,49.3c1,0.5,2.1,0.7,3.2,0.7h0.2c3.6,0,6.7-2.5,7.5-6c0.1-0.5,0.2-1,0.2-1.5c0-0.1,0-0.2,0-0.2
			c-0.2-2-0.8-4-1.9-5.8c-0.7-1.3-1.4-2.4-2-3.4l-1-1.6l-1.2-1.8l-0.1-0.2c0-0.1-0.1-0.1-0.1-0.1c-0.3-0.4-0.8-0.7-1.3-0.7h-0.2
			c-0.5,0-1,0.3-1.4,0.7l-0.1,0.1l-0.1,0.2l-1.2,1.8c-0.4,0.5-0.7,1.1-1,1.6c-0.6,1-1.4,2.1-2,3.4c-1.1,1.8-1.7,3.7-1.9,5.8v0.3
			l-0.1-0.1c0,0.5,0.1,1,0.2,1.5C44.7,46.3,46.3,48.2,48.4,49.3z M48.2,39.5c0.1,0,0.2,0,0.2,0h2.2v-2.2c-0.1-0.6,0.4-1.2,1-1.2
			c0.6-0.1,1.2,0.4,1.2,1c0,0.1,0,0.1,0,0.2v2.2H55c0.6,0.1,1.1,0.6,1,1.2c-0.1,0.5-0.5,1-1,1h-2.2v2.2c-0.1,0.6-0.6,1.1-1.2,1
			c-0.5-0.1-1-0.5-1-1v-2.2h-2.2c-0.6,0.1-1.2-0.4-1.2-1C47.1,40.1,47.6,39.5,48.2,39.5z"/>
		<path class="st0" d="M75.5,11.9h-39c-0.6,0-1.1,0.5-1.1,1.1v4.4c0,0.6,0.5,1.1,1.1,1.1h9.3c-0.2,0.3-0.3,0.6-0.3,1v1.4h-4
			c-0.4,0-0.7,0.2-0.9,0.5l-4.8,6.3c-0.1,0.2-0.2,0.4-0.2,0.7v27.1c0,0.6,0.5,1.1,1.1,1.1h30c0.6,0,1.1-0.5,1.1-1.1V28.3
			c0-0.2-0.1-0.5-0.2-0.7l-4.8-6.3c-0.2-0.3-0.5-0.4-0.9-0.5h-4.3v-1.4c0-0.3-0.1-0.7-0.3-1H70v39c0,0.6,0.5,1.1,1.1,1.1h4.4
			c0.6,0,1.1-0.5,1.1-1.1V13C76.6,12.4,76.1,11.9,75.5,11.9z M61.4,23.2L61.4,23.2l4.2,5.5v25.6H37.9v-5.9h3.9
			c0.6-0.1,1.1-0.6,1-1.2c-0.1-0.5-0.5-1-1-1h-3.9V43h3.9c0.6-0.1,1.1-0.6,1-1.2c-0.1-0.5-0.5-1-1-1h-3.9v-3.2H42
			c0.6,0.1,1.2-0.4,1.2-1c0.1-0.6-0.4-1.2-1-1.2c-0.1,0-0.1,0-0.2,0h-4.1v-6.6l4.2-5.6H61.4z M74.4,56.4h-2.1v-39
			c0-0.6-0.5-1.1-1.1-1.1H37.6v-2.2h36.8V56.4z"/>
	</g>
</g>
</svg>
